<mxfile host="Electron" agent="Mozilla/5.0 (Windows NT 10.0; Win64; x64) AppleWebKit/537.36 (KHTML, like Gecko) draw.io/28.1.2 Chrome/138.0.7204.243 Electron/37.4.0 Safari/537.36" version="28.1.2">
  <diagram name="Page-1" id="ZbYX98h1T1LN1G1m211e">
    <mxGraphModel dx="1213" dy="828" grid="1" gridSize="10" guides="1" tooltips="1" connect="1" arrows="1" fold="1" page="1" pageScale="1" pageWidth="850" pageHeight="1100" math="0" shadow="0">
      <root>
        <mxCell id="0" />
        <mxCell id="1" parent="0" />
        <mxCell id="fq5aer6Lcqt648KyRIRF-1" value="&lt;font style=&quot;font-size: 23px;&quot;&gt;&lt;b style=&quot;&quot;&gt;&lt;u style=&quot;&quot;&gt;Duplicate Encoder (Codewars)&lt;/u&gt;&lt;/b&gt;&lt;/font&gt;" style="text;html=1;align=center;verticalAlign=middle;whiteSpace=wrap;rounded=0;" vertex="1" parent="1">
          <mxGeometry x="200" y="60" width="330" height="70" as="geometry" />
        </mxCell>
        <mxCell id="fq5aer6Lcqt648KyRIRF-2" value="&lt;font style=&quot;font-size: 17px;&quot;&gt;JavaScript&lt;/font&gt;" style="text;html=1;align=center;verticalAlign=middle;whiteSpace=wrap;rounded=0;" vertex="1" parent="1">
          <mxGeometry x="80" y="180" width="220" height="50" as="geometry" />
        </mxCell>
        <mxCell id="fq5aer6Lcqt648KyRIRF-4" value="&lt;font style=&quot;font-size: 17px;&quot;&gt;The goal of this exercise is to convert a string to a new string where each character in the new string is &quot;&lt;font style=&quot;color: rgb(19, 255, 35);&quot;&gt;(&lt;/font&gt;&quot; if that character appears &lt;font style=&quot;color: rgb(19, 255, 35);&quot;&gt;only once&lt;/font&gt; in the original string, or &quot;&lt;font style=&quot;color: rgb(0, 255, 255);&quot;&gt;)&lt;/font&gt;&quot; if that character &lt;font style=&quot;color: rgb(0, 255, 255);&quot;&gt;appears more than once&lt;/font&gt; in the original string. &lt;font style=&quot;color: rgb(29, 39, 255);&quot;&gt;Ignore capitalization when determining if a character is a duplicate.&lt;/font&gt;&lt;/font&gt;" style="text;html=1;align=center;verticalAlign=middle;whiteSpace=wrap;rounded=0;labelBackgroundColor=#E556CB;" vertex="1" parent="1">
          <mxGeometry x="190" y="270" width="390" height="170" as="geometry" />
        </mxCell>
        <mxCell id="fq5aer6Lcqt648KyRIRF-5" value="&lt;ul&gt;&lt;li&gt;&lt;span style=&quot;font-size: 17px;&quot;&gt;&lt;font style=&quot;color: rgb(29, 39, 255);&quot;&gt;Case insensitive&lt;/font&gt;&lt;/span&gt;&lt;/li&gt;&lt;li&gt;&lt;span style=&quot;font-size: 17px;&quot;&gt;&lt;font style=&quot;color: rgb(19, 255, 35);&quot;&gt;appears 1 time (&lt;/font&gt;&lt;/span&gt;&lt;/li&gt;&lt;li&gt;&lt;span style=&quot;font-size: 17px;&quot;&gt;&lt;font style=&quot;color: rgb(0, 255, 255);&quot;&gt;appears more than once )&lt;/font&gt;&lt;/span&gt;&lt;/li&gt;&lt;/ul&gt;" style="text;html=1;align=center;verticalAlign=middle;whiteSpace=wrap;rounded=0;labelBackgroundColor=#060606;fontColor=#FFBDE3;" vertex="1" parent="1">
          <mxGeometry x="255" y="480" width="260" height="90" as="geometry" />
        </mxCell>
      </root>
    </mxGraphModel>
  </diagram>
</mxfile>
